<svg xmlns="http://www.w3.org/2000/svg" viewBox="0 0 45.3 42.17"><defs><style>.cls-1{fill:#61ba61;}</style></defs><g id="Layer_2" data-name="Layer 2"><g id="Layer_2-2" data-name="Layer 2"><path class="cls-1" d="M21.34,10.42A10.56,10.56,0,1,0,31.89,21,10.57,10.57,0,0,0,21.34,10.42Zm0,19.91A9.36,9.36,0,1,1,30.69,21,9.37,9.37,0,0,1,21.34,30.33Z"/><path class="cls-1" d="M42.76,19.68a2.53,2.53,0,0,0-2.47,2H34.62c0-.23,0-.46,0-.7A13.43,13.43,0,0,0,34,16.84H37.3a2.54,2.54,0,1,0,0-1.1H33.64v.15A13.35,13.35,0,0,0,23.32,7.82V3.23h2.32A2.53,2.53,0,1,0,28.07,0a2.52,2.52,0,0,0-2.49,2.13H22.77a.55.55,0,0,0-.55.55v5c-.29,0-.58,0-.88,0a13.12,13.12,0,0,0-2.1.18V5a.55.55,0,0,0-.55-.55H16.42a2.54,2.54,0,1,0,0,1.1h1.72V8.06a13.32,13.32,0,0,0-9.7,9.66H5.08V16.15a2.54,2.54,0,1,0-1.1,0v2.12a.54.54,0,0,0,.55.55H8.21A12.73,12.73,0,0,0,8,21a13.6,13.6,0,0,0,.12,1.7H5a2.54,2.54,0,1,0,0,1.1H8.32A13.35,13.35,0,0,0,17,33.57V39H14.73a2.54,2.54,0,1,0,.06,1.1h2.8a.55.55,0,0,0,.55-.55V33.89a13.48,13.48,0,0,0,3.2.4c.3,0,.59,0,.88,0v2.85a2.54,2.54,0,1,0,1.1,0v-3a13.31,13.31,0,0,0,10.1-7.59h5.8v1.92a2.54,2.54,0,1,0,1.1,0V26a.55.55,0,0,0-.55-.55h-5.9a13.78,13.78,0,0,0,.65-2.66h5.77a2.54,2.54,0,1,0,2.47-3.09Zm-3-4.83a1.44,1.44,0,1,1-1.44,1.44A1.44,1.44,0,0,1,39.77,14.85ZM28.07,1.1a1.44,1.44,0,1,1-1.44,1.44A1.44,1.44,0,0,1,28.07,1.1ZM14,6.42A1.44,1.44,0,1,1,15.39,5,1.45,1.45,0,0,1,14,6.42ZM3.09,13.67a1.44,1.44,0,1,1,1.44,1.44A1.44,1.44,0,0,1,3.09,13.67Zm-.55,11A1.44,1.44,0,1,1,4,23.22,1.45,1.45,0,0,1,2.54,24.66Zm9.75,16.41a1.44,1.44,0,1,1,1.44-1.44A1.43,1.43,0,0,1,12.29,41.07Zm11.92-1.5a1.44,1.44,0,1,1-1.44-1.44A1.44,1.44,0,0,1,24.21,39.57Zm17-8.64a1.44,1.44,0,1,1-1.44-1.44A1.44,1.44,0,0,1,41.21,30.93ZM21.34,33.09A12.12,12.12,0,1,1,33.45,21,12.13,12.13,0,0,1,21.34,33.09Zm21.42-9.43a1.44,1.44,0,1,1,1.44-1.44A1.45,1.45,0,0,1,42.76,23.66Z"/><path class="cls-1" d="M24.91,24a.71.71,0,0,0-.15-.56.83.83,0,0,0-.53-.29.67.67,0,0,0-.54.14,3.58,3.58,0,0,1-2.17.7A3,3,0,0,1,19.34,23a3,3,0,0,1,0-4.41,3.07,3.07,0,0,1,2.18-.94,3.65,3.65,0,0,1,2.15.69.66.66,0,0,0,.56.17.78.78,0,0,0,.52-.29.75.75,0,0,0,.15-.58.78.78,0,0,0-.29-.52,5,5,0,0,0-2-.91V14.87a.5.5,0,0,0-.5-.5.51.51,0,0,0-.5.5v1.24h0a5.92,5.92,0,0,0-1.13.15V14.87a.5.5,0,0,0-.5-.5.51.51,0,0,0-.5.5v1.76a4.89,4.89,0,0,0-1.24.87,4.39,4.39,0,0,0-1.41,3.3,4.54,4.54,0,0,0,1.41,3.32,4.89,4.89,0,0,0,1.24.87v1.7a.51.51,0,0,0,.5.5.5.5,0,0,0,.5-.5V25.36a5.22,5.22,0,0,0,1.13.14h0v1.19a.51.51,0,0,0,.5.5.5.5,0,0,0,.5-.5V25.38a5.3,5.3,0,0,0,2-.88A.85.85,0,0,0,24.91,24Z"/></g></g></svg>