<svg xmlns="http://www.w3.org/2000/svg" xmlns:xlink="http://www.w3.org/1999/xlink" viewBox="0 0 247.31 74.07"><defs><style>.cls-1{fill:#61ba61;}.cls-2{fill:url(#linear-gradient);}</style><linearGradient id="linear-gradient" x1="229.3" y1="63.32" x2="247.31" y2="63.32" gradientUnits="userSpaceOnUse"><stop offset="0.11" stop-color="#64af75"/><stop offset="0.12" stop-color="#67b073"/><stop offset="0.38" stop-color="#90c258"/><stop offset="0.61" stop-color="#aecf44"/><stop offset="0.8" stop-color="#c0d737"/><stop offset="0.94" stop-color="#c7da33"/></linearGradient></defs><g id="Layer_2" data-name="Layer 2"><g id="Layer_1-2" data-name="Layer 1"><path class="cls-1" d="M50.2,40.51v31a.88.88,0,0,1-.88.88H32.91a.87.87,0,0,1-.88-.88V41.37a15.54,15.54,0,0,0-1-6.27,5.6,5.6,0,0,0-1.54-2A6.4,6.4,0,0,0,25.45,32c-3.16,0-5.62,1.09-6.39,2.84s-.89,4.5-.89,6.58v30.1a.88.88,0,0,1-.88.88H.88A.87.87,0,0,1,0,71.47V.88A.87.87,0,0,1,.88,0H16.25a.87.87,0,0,1,.88.88V19.69a.44.44,0,0,0,.69.36c12.39-8.53,24.45.94,24.58,1,.44.35.86.72,1.24,1.09h0C49.25,27.83,50.2,32.4,50.2,40.51Z"/><path class="cls-1" d="M116.61,45.26a32.39,32.39,0,0,1-.47,5.12.88.88,0,0,1-.87.73H76.74A.89.89,0,0,0,76,52.45,13.1,13.1,0,0,0,87.27,59a12.9,12.9,0,0,0,10.34-5.14.91.91,0,0,1,.86-.33l14.75,2.65a.88.88,0,0,1,.64,1.24c-.33.7-.75,1.55-1,2h0l-.25.4c-.22.39-.46.76-.73,1.18s-.66,1-1,1.39l-.19.26h0l-.31.41-.17.2c-.2.26-.4.49-.6.72l-.17.2c-.33.38-.65.72-1,1.09l-.19.2-.71.69-.07.06c-.25.25-.52.49-.79.72l-.29.25-.33-.29.28.33-1.18,1-.34.24c-.45.34-.91.66-1.39,1l-.13.08c-.54.35-1.09.68-1.64,1l-.17.09-.4.21-.09,0-.71.36-.14.06c-.52.25-1,.47-1.5.68l-.09,0-.92.36-.36.13-1.09.37-.06,0-1.28.36-.33.08q-1.26.31-2.52.51l-.31.05c-.89.13-1.77.21-2.64.26l-.32,0-1.35,0L86,74l-.3,0h-.1l-1-.08h-.11l-.29,0L83,73.75h0l-.23,0c-.36-.06-.71-.12-1.07-.2l-.38-.08c-.31-.06-.63-.13-.94-.21l-.1,0L80,73.13c-.47-.12-.88-.24-1.25-.35l-1.22-.41-.29-.1-.07,0-.88-.35-.08,0-.27-.11c-.4-.16-.78-.34-1.16-.52l0,0c-.34-.16-.72-.35-1.09-.55l-.26-.14-.07,0L72.45,70l-.32-.19-1.06-.67a29.25,29.25,0,0,1-8.66-9c-.18-.3-.36-.6-.53-.9l-.07-.14c-.17-.29-.32-.59-.48-.89l-.08-.16c0-.09-.1-.18-.14-.27a29.79,29.79,0,0,1-1.46-3.56c-.23-.69-.4-1.26-.55-1.82s-.22-.92-.32-1.39a28.53,28.53,0,0,1-.56-4.32c0-.49,0-1,0-1.49s0-1,0-1.48a28.72,28.72,0,0,1,1.43-7.54c.27-.8.54-1.52.83-2.19.17-.39.34-.77.53-1.15,0-.09.08-.18.13-.27l.11-.22c0-.09.08-.17.13-.26l.15-.27.25-.47q.3-.56.63-1.08a29.37,29.37,0,0,1,8.66-9l1.06-.67.32-.19.82-.46.07,0,.26-.14c.37-.2.75-.39,1.13-.57s.78-.36,1.17-.52l.27-.12.08,0,.88-.34.09,0,.27-.1c.4-.15.81-.28,1.22-.41s.83-.24,1.25-.35l.27-.07.1,0,1-.22.21,0c.38-.08,1-.19,1.39-.25H83c.39-.06.81-.11,1.29-.16l.29,0h.1l1-.08h.08l.32,0,1.35,0,1.33,0h.33c.88.05,1.76.14,2.62.27l.35.05c.83.13,1.67.3,2.48.5l.36.09c.47.12.88.24,1.26.36l.06,0,1.1.36.33.12.91.36.15.06c.47.19,1,.42,1.48.66l.13.06.7.35.08,0-.19.4.23-.37.4.21c.5.28,1.3.75,1.78,1.06l.06,0c.51.33,1,.66,1.46,1l.07.05.29.21,1.19,1,.24.2c.3.26.6.53.89.81l.08.07c.23.22.47.45.69.68l.18.18c.37.38.7.73,1,1.08l-.29.34.33-.29.16.18c.19.23.39.46.58.7l.18.22.66.86,0,0c.17.23.34.47.5.71l.32.48.4.63.54.9h0a28.49,28.49,0,0,1,3.75,14.11ZM99.4,38c-.69-4.05-5.38-7.21-11.34-7.21-5.42,0-10.57,3.14-11.34,7.2a.88.88,0,0,0,.87,1H98.53A.89.89,0,0,0,99.4,38Z"/><path class="cls-1" d="M154.78,18.25l-.53,12.87a.87.87,0,0,1-.95.84,23.38,23.38,0,0,0-6.29.09,5.31,5.31,0,0,0-3.45,2.74,12.38,12.38,0,0,0-.89,5.72v31a.88.88,0,0,1-.88.88H125.38a.87.87,0,0,1-.88-.88V18.21a.87.87,0,0,1,.88-.88h15.38a.87.87,0,0,1,.87.88v1.53a.44.44,0,0,0,.67.38c3.65-2.27,8-2.74,11.59-2.79A.89.89,0,0,1,154.78,18.25Z"/><path class="cls-1" d="M219,17.3a.87.87,0,0,1,.88.88V71.44a.87.87,0,0,1-.88.88H203.64a.87.87,0,0,1-.88-.88v-.81a.44.44,0,0,0-.66-.38,29.45,29.45,0,0,1-14.5,3.8,29,29,0,0,1-29.21-28.81A29.05,29.05,0,0,1,187.6,16.43a29.45,29.45,0,0,1,14.5,3.8.44.44,0,0,0,.66-.38V18.18a.87.87,0,0,1,.88-.88H219ZM202.76,45.24C202.76,38,197.63,32,190.24,32a13.22,13.22,0,1,0,0,26.43C197.63,58.46,202.76,52.53,202.76,45.24Z"/><path class="cls-2" d="M247.31,55.19V71.45a.89.89,0,0,1-.88.88H230.17a.88.88,0,0,1-.87-.88V55.19a.87.87,0,0,1,.87-.87h16.26A.88.88,0,0,1,247.31,55.19Z"/></g></g></svg>